<svg xmlns="http://www.w3.org/2000/svg" fill="currentColor" viewBox="0 0 24 24"><path d="M7 1.93c0 .512-1.012 1.075-2.25 1.25-2.153.306-2.25.729-2.25 9.82v9.5h19v-9.486c0-8.693-.167-9.518-2-9.866-1.1-.209-2.372-.89-2.826-1.514-.605-.831-.962-.8-1.333.116C14.741 3.228 9 3.455 9 2c0-.55-.45-1-1-1s-1 .419-1 .93M4 7c0 1.833.667 2 8 2s8-.167 8-2c0-2.196-2.487-2.742-3.417-.75-.466 1-.7 1-1.166 0C15.096 5.563 13.558 5 12 5s-3.096.563-3.417 1.25c-.466 1-.7 1-1.166 0C6.487 4.258 4 4.804 4 7m0 9v5h16V11H4z"/></svg>