<svg xmlns="http://www.w3.org/2000/svg" fill="currentColor" viewBox="0 0 24 24"><path fill-rule="evenodd" d="M8 1a1 1 0 0 0-1 1v4a1 1 0 0 0 1 1 1 1 0 0 0 1-1V2a1 1 0 0 0-1-1m8 0a1 1 0 0 0-1 1v4a1 1 0 0 0 1 1 1 1 0 0 0 1-1V2a1 1 0 0 0-1-1" fill="currentColor"/><path fill-rule="evenodd" d="M5 3C3.355 3 2 4.355 2 6v14c0 1.645 1.355 3 3 3h14c1.645 0 3-1.355 3-3V6c0-1.645-1.355-3-3-3Zm0 2h14c.571 0 1 .429 1 1v14c0 .571-.429 1-1 1H5c-.571 0-1-.429-1-1V6c0-.571.429-1 1-1" fill="currentColor"/><path fill-rule="evenodd" d="M3 9a1 1 0 0 0-1 1 1 1 0 0 0 1 1h18a1 1 0 0 0 1-1 1 1 0 0 0-1-1z" fill="currentColor"/></svg>