<svg xmlns="http://www.w3.org/2000/svg" fill="currentColor" viewBox="0 0 24 24"><path d="M1.667 1.667C1.3 2.033 1 5.422 1 9.198c0 5.265.36 7.003 1.543 7.457.849.326 1.861.25 2.25-.168s.145-.962-.543-1.207C3.441 14.991 3 12.745 3 8.917V3h5.917c3.828 0 6.074.441 6.363 1.25.245.688.788.932 1.207.543.418-.389.494-1.401.168-2.25C16.201 1.36 14.463 1 9.198 1c-3.776 0-7.165.3-7.531.667m5.767 6.644c-.295.77-.401 4.277-.235 7.794L7.5 22.5h15v-15l-7.264-.294c-5.508-.223-7.395.044-7.802 1.105M9 15v6h12V9H9z"/></svg>