<svg xmlns="http://www.w3.org/2000/svg" fill="currentColor" viewBox="0 0 24 24"><path fill-rule="evenodd" d="M10 7c-1.645 0-3 1.355-3 3v10c0 1.645 1.355 3 3 3h10c1.645 0 3-1.355 3-3V10c0-1.645-1.355-3-3-3Zm0 2h10c.571 0 1 .429 1 1v10c0 .571-.429 1-1 1H10c-.571 0-1-.429-1-1V10c0-.571.429-1 1-1" fill="currentColor"/><path fill-rule="evenodd" d="M4 1C2.355 1 1 2.355 1 4v10c0 1.645 1.355 3 3 3a1 1 0 0 0 1-1 1 1 0 0 0-1-1c-.555 0-1-.445-1-1V4c0-.555.445-1 1-1h10c.555 0 1 .445 1 1a1 1 0 0 0 1 1 1 1 0 0 0 1-1c0-1.645-1.355-3-3-3Z" fill="currentColor"/></svg>