<svg xmlns="http://www.w3.org/2000/svg" fill="currentColor" viewBox="0 0 24 24"><path fill-rule="evenodd" d="M15 2a1 1 0 0 0-1 1 1 1 0 0 0 1 1h5v5a1 1 0 0 0 1 1 1 1 0 0 0 1-1V3a1 1 0 0 0-1-1Z" fill="currentColor"/><path fill-rule="evenodd" d="m20.293 2.293-11 11a1 1 0 0 0 0 1.414 1 1 0 0 0 1.414 0l11-11a1 1 0 0 0 0-1.414 1 1 0 0 0-1.414 0" fill="currentColor"/><path fill-rule="evenodd" d="M5 5C3.355 5 2 6.355 2 8v11c0 1.645 1.355 3 3 3h11c1.645 0 3-1.355 3-3v-6a1 1 0 0 0-1-1 1 1 0 0 0-1 1v6c0 .564-.436 1-1 1H5c-.564 0-1-.436-1-1V8c0-.564.436-1 1-1h6a1 1 0 0 0 1-1 1 1 0 0 0-1-1Z" fill="currentColor"/></svg>