<svg xmlns="http://www.w3.org/2000/svg" fill="currentColor" viewBox="0 0 24 24"><path fill-rule="evenodd" d="M12 1C5.937 1 1 5.937 1 12s4.937 11 11 11 11-4.937 11-11S18.063 1 12 1m0 2c4.982 0 9 4.018 9 9s-4.018 9-9 9-9-4.018-9-9 4.018-9 9-9" fill="currentColor"/><path fill-rule="evenodd" d="M11.31 1.275v.036h-.035c-5.694 5.978-5.694 15.4 0 21.378a1 1 0 0 0 1.45 0c5.694-5.978 5.694-15.4 0-21.378h-.036v-.036a1 1 0 0 0-.689.018 1 1 0 0 0-.69-.018m.69 2.34a13.4 13.4 0 0 1 0 16.77 13.4 13.4 0 0 1 0-16.77" fill="currentColor"/><path fill-rule="evenodd" d="M2 11a1 1 0 0 0-1 1 1 1 0 0 0 1 1h20a1 1 0 0 0 1-1 1 1 0 0 0-1-1z" fill="currentColor"/></svg>