<svg xmlns="http://www.w3.org/2000/svg" fill="currentColor" viewBox="0 0 24 24"><path d="M7.5 1.894c-4.043 1.758-6 5.082-6 10.188 0 3.992.501 5.374 2.773 7.645C6.557 22.011 7.919 22.5 12 22.5c7.011 0 10.5-3.489 10.5-10.5 0-4.001-.5-5.454-2.597-7.552C17.099 1.644 10.974.383 7.5 1.894M5.073 6.635C2.518 9.882 2.457 11 4.832 11c1.223 0 2.19-1.164 2.907-3.5 1.276-4.159.2-4.509-2.666-.865m5.025.514C9.494 8.881 9 10.456 9 10.649S10.35 11 12 11s3-.158 3-.351C15 9.222 12.644 4 12 4c-.442 0-1.298 1.417-1.902 3.149m6.163.351c.717 2.336 1.684 3.5 2.907 3.5 2.375 0 2.314-1.118-.241-4.365-2.866-3.644-3.942-3.294-2.666.865M3 13.865C3 15.096 6.98 20 7.979 20c.459 0 .35-1.575-.24-3.5-.717-2.336-1.684-3.5-2.907-3.5C3.824 13 3 13.389 3 13.865m6-.514C9 14.778 11.356 20 12 20s3-5.222 3-6.649c0-.193-1.35-.351-3-.351s-3 .158-3 .351m7.261 3.149c-1.276 4.159-.2 4.509 2.666.865 2.555-3.247 2.616-4.365.241-4.365-1.223 0-2.19 1.164-2.907 3.5"/></svg>