<svg xmlns="http://www.w3.org/2000/svg" fill="currentColor" viewBox="0 0 24 24"><path d="M7.446 4.087c-1.03 1.668 1.287 3.58 2.667 2.2C11.267 5.133 10.545 3 9 3c-.485 0-1.184.489-1.554 1.087m6 0c-1.03 1.668 1.287 3.58 2.667 2.2C17.267 5.133 16.545 3 15 3c-.485 0-1.184.489-1.554 1.087m-6 7c-1.03 1.668 1.287 3.58 2.667 2.2C11.267 12.133 10.545 10 9 10c-.485 0-1.184.489-1.554 1.087m6 0c-1.03 1.668 1.287 3.58 2.667 2.2C17.267 12.133 16.545 10 15 10c-.485 0-1.184.489-1.554 1.087m-6 7c-1.03 1.668 1.287 3.58 2.667 2.2C11.267 19.133 10.545 17 9 17c-.485 0-1.184.489-1.554 1.087m6 0c-1.03 1.668 1.287 3.58 2.667 2.2C17.267 19.133 16.545 17 15 17c-.485 0-1.184.489-1.554 1.087"/></svg>