<svg xmlns="http://www.w3.org/2000/svg" fill="currentColor" viewBox="0 0 24 24"><path fill-rule="evenodd" d="M17.006 3.002c-1.755-.14-3.576.476-5.006 1.883-1.945-1.9-4.623-2.3-6.826-1.455C2.85 4.32 1 6.567 1 9.5c0 2.735 1.762 4.676 3.293 6.207l.012.012 5.508 5.332-.051-.053c1.191 1.334 3.325 1.32 4.5-.03l-.059.063 5.492-5.312.012-.012c1.532-1.532 3.291-3.479 3.293-6.203v-.002c.013-2.941-1.84-5.196-4.168-6.088a6.6 6.6 0 0 0-1.826-.412m-1.453 2.055a4.54 4.54 0 0 1 2.564.224C19.75 5.907 21.01 7.38 21 9.496V9.5c0 1.852-1.239 3.325-2.705 4.791l-5.483 5.303-.058.062a.982.982 0 0 1-1.5.01l-.05-.053-5.497-5.32-.002-.002C4.237 12.823 3 11.364 3 9.5c0-2.11 1.258-3.576 2.889-4.201s3.548-.376 4.959 1.193l.013.016a1.58 1.58 0 0 0 2.278 0l.017-.02c.704-.79 1.537-1.249 2.397-1.431m-3.875.084c.002-.003.006.002.008 0-.008.008-.017.011-.024.02zm.636 0c.002.002.006-.003.008 0l.012.015z" fill="currentColor"/></svg>