<svg xmlns="http://www.w3.org/2000/svg" fill="currentColor" viewBox="0 0 24 24"><path d="M4.4 4.4C1.613 7.187 1 8.557 1 12s.613 4.813 3.4 7.6c4.823 4.823 10.377 4.823 15.2 0 2.787-2.787 3.4-4.157 3.4-7.6 0-6.014-4.986-11-11-11-3.443 0-4.813.613-7.6 3.4M8 4.253C2.77 6.984 1.773 14.674 6.137 18.624c2.917 2.64 9.254 2.43 12.085-.402 2.933-2.932 3.066-9.379.252-12.193C15.873 3.429 11.123 2.623 8 4.253M11 8c0 .55.45 1 1 1s1-.45 1-1-.45-1-1-1-1 .45-1 1m0 6c0 1.65.45 3 1 3s1-1.35 1-3-.45-3-1-3-1 1.35-1 3"/></svg>