<svg xmlns="http://www.w3.org/2000/svg" fill="currentColor" viewBox="0 0 24 24"><path fill-rule="evenodd" d="M1.783 6.023a1 1 0 0 0-.627.44 1 1 0 0 0 .307 1.38l9 5.727.035.022c.93.54 2.084.54 3.014 0l.035-.022 8.99-5.726a1 1 0 0 0 .307-1.381 1 1 0 0 0-1.381-.307l-8.957 5.705a1 1 0 0 1-1.002 0h-.002L2.537 6.156a1 1 0 0 0-.754-.133" fill="currentColor"/><path fill-rule="evenodd" d="M4 3C2.355 3 1 4.355 1 6v12c0 1.645 1.355 3 3 3h16c1.645 0 3-1.355 3-3V6c0-1.645-1.355-3-3-3Zm0 2h16c.571 0 1 .429 1 1v12c0 .571-.429 1-1 1H4c-.571 0-1-.429-1-1V6c0-.571.429-1 1-1" fill="currentColor"/></svg>