<svg xmlns="http://www.w3.org/2000/svg" fill="currentColor" viewBox="0 0 24 24"><path d="M5.923 3.923c-3.798 3.798-3.768 7.458.108 13.311 4.813 7.266 7.125 7.266 11.938 0 3.876-5.853 3.906-9.513.108-13.311-3.93-3.93-8.224-3.93-12.154 0m1.532 1.532C6.105 6.805 5 8.627 5 9.504c0 2.258 2.424 6.665 4.898 8.903 2.066 1.871 2.138 1.871 4.204 0C16.576 16.169 19 11.762 19 9.504 19 7.216 14.463 3 12 3c-1.15 0-3.195 1.105-4.545 2.455M9.04 7.452c-1.555 1.873-1.012 4.537 1.21 5.936 3.465 2.182 7.367-2.735 4.71-5.936a3.837 3.837 0 0 0-5.92 0m1.406 1.635c-1.03 1.668 1.287 3.58 2.667 2.2C14.267 10.133 13.545 8 12 8c-.485 0-1.184.489-1.554 1.087"/></svg>