<svg xmlns="http://www.w3.org/2000/svg" fill="currentColor" viewBox="0 0 24 24"><path fill-rule="evenodd" d="M12 1c-4.959 0-9 4.041-9 9 0 2.866 1.523 5.563 3.207 7.775s3.577 3.95 4.54 4.782l.052.04a2.01 2.01 0 0 0 2.402 0l.053-.04c.962-.831 2.855-2.569 4.539-4.782S21 12.866 21 10c0-4.959-4.041-9-9-9m0 2c3.878 0 7 3.122 7 7 0 2.127-1.246 4.527-2.797 6.564-1.531 2.013-3.295 3.637-4.203 4.424-.908-.787-2.672-2.411-4.203-4.424C6.247 14.527 5 12.127 5 10c0-3.878 3.122-7 7-7" fill="currentColor"/><path fill-rule="evenodd" d="M12 6c-2.197 0-4 1.803-4 4s1.803 4 4 4 4-1.803 4-4-1.803-4-4-4m0 2c1.116 0 2 .884 2 2s-.884 2-2 2-2-.884-2-2 .884-2 2-2" fill="currentColor"/></svg>