<svg xmlns="http://www.w3.org/2000/svg" fill="currentColor" viewBox="0 0 24 24"><path d="M4.75 3.535C2.102 5.007 2 5.365 2 13.16v8.096l3.946-.631c2.293-.367 5.027-.139 6.526.544 2.096.955 3.234.865 6.054-.48L22 19.032V3.017l-4.75.118c-2.613.065-5.875-.163-7.25-.506-1.481-.369-3.621 0-5.25.906m.943 2.694c-1.452 1.067-1.746 2.457-1.5 7.098.285 5.366.434 5.678 2.114 4.444 1.452-1.067 1.746-2.457 1.5-7.098-.285-5.366-.434-5.678-2.114-4.444M10 10.93c0 4.976.341 6.182 2 7.07 1.897 1.015 2 .76 2-4.93 0-4.976-.341-6.182-2-7.07-1.897-1.015-2-.76-2 4.93m7.693-4.701c-1.452 1.067-1.746 2.457-1.5 7.098.285 5.366.434 5.678 2.114 4.444 1.452-1.067 1.746-2.457 1.5-7.098-.285-5.366-.434-5.678-2.114-4.444"/></svg>