<svg xmlns="http://www.w3.org/2000/svg" fill="currentColor" viewBox="0 0 24 24"><path fill-rule="evenodd" d="M9 2.236a3 3 0 0 0-1.342.317L3.105 4.83A2 2 0 0 0 2 6.617v12.764c-.002 1.445 1.601 2.437 2.895 1.79l3.658-1.83a1 1 0 0 1 .894 0l4.211 2.108c.844.422 1.84.422 2.684 0l4.553-2.277A2.01 2.01 0 0 0 22 17.382V4.62c0-1.445-1.602-2.437-2.895-1.79l-3.658 1.83a1 1 0 0 1-.894 0l-4.211-2.106A3 3 0 0 0 9 2.236m-.447 2.106a1 1 0 0 1 .894 0l4.211 2.105c.844.422 1.84.422 2.684 0L20 4.617v12.766l-4.553 2.277a1 1 0 0 1-.894 0l-4.211-2.107a3 3 0 0 0-2.684 0L4 19.383V6.619Z" fill="currentColor"/><path fill-rule="evenodd" d="M15 4.764a1 1 0 0 0-1 1v15a1 1 0 0 0 1 1 1 1 0 0 0 1-1v-15a1 1 0 0 0-1-1M9 2.236a1 1 0 0 0-1 1v15a1 1 0 0 0 1 1 1 1 0 0 0 1-1v-15a1 1 0 0 0-1-1" fill="currentColor"/></svg>