<svg xmlns="http://www.w3.org/2000/svg" fill="currentColor" viewBox="0 0 24 24"><path fill-rule="evenodd" d="M4 1C2.355 1 1 2.355 1 4c0 10.482 8.518 19 19 19 1.645 0 3-1.355 3-3v-3c0-1.645-1.355-3-3-3h-3c-.94 0-1.828.443-2.395 1.193l-.002.002q0 .003-.003.004l-.348.455A13 13 0 0 1 8.34 9.746L8.8 9.4A3 3 0 0 0 10 7V4c0-1.645-1.355-3-3-3Zm0 2h3c.564 0 1 .436 1 1v3a1 1 0 0 1-.4.8l-.467.35-.008.006a2.01 2.01 0 0 0-.584 2.467l.002.002a15 15 0 0 0 6.848 6.84l.017-.006.006.018a2.01 2.01 0 0 0 2.426-.606l.355-.465.004-.006A1 1 0 0 1 17 16h3c.564 0 1 .436 1 1v3c0 .564-.436 1-1 1-9.4 0-17-7.6-17-17 0-.564.436-1 1-1" fill="currentColor"/></svg>