<svg xmlns="http://www.w3.org/2000/svg" fill="currentColor" viewBox="0 0 24 24"><path d="M1.714 1.619C1.321 2.012 1 3.623 1 5.199c0 9.237 11.174 19.262 19.65 17.63 1.431-.276 1.85-1.259 1.85-4.343V14.5l-5.247-.047c-2.886-.026-5.79-.59-6.453-1.253S9.573 9.633 9.547 6.747L9.5 1.5l-3.536-.298c-1.944-.163-3.857.024-4.25.417M3 4.257c0 6.226 5.965 14.083 11.956 15.747C20.189 21.458 21 21.256 21 18.5c0-1.942-.513-2.5-2.3-2.5-1.265 0-2.792.492-3.393 1.093-.791.791-1.795.633-3.631-.569-3.667-2.403-6.139-6.461-4.769-7.831C7.508 8.092 8 6.565 8 5.3 8 3.513 7.442 3 5.5 3 4.125 3 3 3.565 3 4.257"/></svg>