<svg xmlns="http://www.w3.org/2000/svg" fill="currentColor" viewBox="0 0 24 24"><path d="M14.571 3.571c-.864.865-1.571 2.44-1.571 3.5 0 2.149-1.047 2.482-2.678.851-.593-.593-2.371-.931-3.95-.75C.825 7.806 2.974 14.336 9 15.159c1.698.232 2.602 1.062 2.82 2.591.286 2.017-.102 2.25-3.75 2.25C5.831 20 4 20.45 4 21c0 .583 3.333 1 8 1s8-.417 8-1c0-.55-1.291-1-2.869-1-2.532 0-2.94-.433-3.468-3.687C13.048 12.52 14.2 10 16.551 10 18.651 10 21 7.058 21 4.429 21 2.524 20.476 2 18.571 2c-1.335 0-3.135.707-4 1.571m1.409 1.953c-.696.838-.987 1.803-.647 2.143C16.06 8.393 19 6.156 19 4.878c0-1.378-1.63-1.029-3.02.646M5 9.878c0 1.607 2.952 3.354 4.6 2.722 1.317-.505 1.391-.906.39-2.112C8.659 8.884 5 8.436 5 9.878"/></svg>