<svg xmlns="http://www.w3.org/2000/svg" fill="currentColor" viewBox="0 0 24 24"><path fill-rule="evenodd" d="M18 2c-2.75 0-5 2.25-5 5v2.11c-1.185.916-2 2.285-2 3.89 0 1.167.3 2.066.55 2.816S12 17.166 12 18a4 4 0 0 1-.8 2.4 1 1 0 0 0 .2 1.4 1 1 0 0 0 1.4-.2A6 6 0 0 0 14 18c0-1.167-.3-2.066-.55-2.816S13 13.834 13 13c0-1.669 1.331-3 3-3 2.75 0 5-2.25 5-5V3.5c0-.817-.683-1.5-1.5-1.5Zm0 2h1v1c0 1.669-1.331 3-3 3-.354 0-.666.132-1 .203V7c0-1.669 1.331-3 3-3" fill="currentColor"/><path fill-rule="evenodd" d="M6.547 7.027A5.8 5.8 0 0 0 3.4 8.2a1 1 0 0 0-.363.764L3 9c0 4.881 5.695 7.73 9.6 4.8a1 1 0 0 0 .4-.8c0-3.661-3.204-6.179-6.453-5.973m.187 1.95c1.986-.156 3.78 1.287 4.102 3.441-2.432 1.314-5.264-.102-5.672-2.836.515-.278 1.036-.564 1.57-.605M5 20a1 1 0 0 0-1 1 1 1 0 0 0 1 1h14a1 1 0 0 0 1-1 1 1 0 0 0-1-1z" fill="currentColor"/></svg>