<svg xmlns="http://www.w3.org/2000/svg" fill="currentColor" viewBox="0 0 24 24"><path d="M1.667 1.667C1.3 2.033 1 4.636 1 7.451c0 4.852.274 5.388 5.281 10.333C9.186 20.653 12.243 23 13.073 23 15.013 23 23 14.897 23 12.928c0-.823-2.377-3.843-5.281-6.712C12.754 1.313 12.134 1 7.385 1c-2.778 0-5.352.3-5.718.667M3 7.288c0 3.823.543 4.822 5.012 9.223l5.011 4.937 4.212-4.213 4.213-4.212-4.937-5.011C12.11 3.543 11.111 3 7.288 3H3zM6 7.5C6 8.325 6.675 9 7.5 9S9 8.325 9 7.5 8.325 6 7.5 6 6 6.675 6 7.5"/></svg>