<svg xmlns="http://www.w3.org/2000/svg" fill="currentColor" viewBox="0 0 24 24"><path fill-rule="evenodd" d="M6 14c-2.75 0-5 2.25-5 5v2a1 1 0 0 0 1 1 1 1 0 0 0 1-1v-2c0-1.669 1.331-3 3-3h6c1.669 0 3 1.331 3 3v2a1 1 0 0 0 1 1 1 1 0 0 0 1-1v-2c0-2.75-2.25-5-5-5zM16.25 2.16a1 1 0 0 0-1.219.717 1 1 0 0 0 .719 1.219c1.568.406 2.246 1.624 2.246 2.904s-.678 2.498-2.246 2.904a1 1 0 0 0-.719 1.219 1 1 0 0 0 1.219.717c2.427-.63 3.746-2.766 3.746-4.84s-1.32-4.21-3.746-4.84m3 12.002a1 1 0 0 0-1.219.719 1 1 0 0 0 .719 1.217A2.99 2.99 0 0 1 21 19v2a1 1 0 0 0 1 1 1 1 0 0 0 1-1v-2a5.01 5.01 0 0 0-3.75-4.838M9 2C6.25 2 4 4.25 4 7s2.25 5 5 5 5-2.25 5-5-2.25-5-5-5m0 2c1.669 0 3 1.331 3 3s-1.331 3-3 3-3-1.331-3-3 1.331-3 3-3" fill="currentColor"/></svg>