<svg xmlns="http://www.w3.org/2000/svg" fill="currentColor" viewBox="0 0 24 24"><path d="M5.571 3.571c-2.007 2.007-2.007 4.851 0 6.858C8.604 13.461 14 11.266 14 7c0-2.386-2.614-5-5-5-1.021 0-2.564.707-3.429 1.571m9.429-.9c0 .369.745 1.494 1.655 2.5 1.54 1.702 1.54 1.956 0 3.658C14.8 10.878 14.543 12 15.929 12 17.516 12 20 8.949 20 7c0-1.021-.707-2.564-1.571-3.429C16.814 1.957 15 1.48 15 2.671M6.958 5.55c-1.062 1.281-.997 1.84.378 3.214 1.552 1.553 1.776 1.553 3.328 0 1.375-1.374 1.44-1.933.378-3.214C10.334 4.698 9.415 4 9 4s-1.334.698-2.042 1.55M2.571 15.571C.837 17.306.419 22 2 22c.55 0 1-.81 1-1.8C3 17.431 5.045 16 9 16s6 1.431 6 4.2c0 .99.45 1.8 1 1.8 1.581 0 1.163-4.694-.571-6.429-2.118-2.117-10.74-2.117-12.858 0M18 14.878c0 .482.675 1.437 1.5 2.122s1.5 2.09 1.5 3.122S21.45 22 22 22c1.581 0 1.163-4.694-.571-6.429C19.704 13.847 18 13.502 18 14.878"/></svg>